<svg width="20" height="20" viewBox="0 0 20 20" xmlns="http://www.w3.org/2000/svg">
  <g clip-path="url(#clip0)">
    <path d="M10 9.78131C12.2237 9.78131 14.0265 7.59171 14.0265 4.89069C14.0265 2.1896 13.4346 0 10 0C6.56543 0 5.97343 2.1896 5.97343 4.89069C5.97343 7.59171 7.77623 9.78131 10 9.78131Z"/>
    <path d="M2.3948 13.2488C2.39411 13.0841 2.39342 13.2024 2.3948 13.2488V13.2488Z"/>
    <path d="M17.6049 13.3774C17.607 13.3323 17.6056 13.0646 17.6049 13.3774V13.3774Z"/>
    <path d="M17.5963 17.0513C17.5217 12.346 16.9072 11.0053 12.2047 10.1566C12.2047 10.1566 11.5428 11.0001 9.99994 11.0001C8.45708 11.0001 7.79503 10.1566 7.79503 10.1566C3.14388 10.996 2.49199 12.3169 2.40628 16.8985C2.39925 17.2726 2.39599 17.2922 2.39474 17.2488C2.39502 17.3302 2.39537 17.4807 2.39537 17.7431C2.39537 17.7431 3.51491 20.0001 9.99994 20.0001C16.4849 20.0001 17.6045 17.7431 17.6045 17.7431C17.6045 17.5745 17.6046 17.4573 17.6048 17.3775C17.6035 17.4043 17.601 17.3523 17.5963 17.0513Z"/>
  </g>
  <defs>
    <clipPath id="clip0">
      <rect width="20" height="20" fill="white"/>
    </clipPath>
  </defs>
</svg>
