<svg width="26" height="26" viewBox="0 0 26 26" xmlns="http://www.w3.org/2000/svg">
  <path d="M1.747 22.875c.137.353.418.633.77.77 1.856.724 3.815 1.1 5.778 1.14L.608 17.096a16.747 16.747 0 001.139 5.778zM24.256 1.906a1.36 1.36 0 00-.77-.77A16.814 16.814 0 0017.828 0l7.564 7.566a16.75 16.75 0 00-1.136-5.66zM5.52 4.91A16.73 16.73 0 00.677 15.22l9.494 9.495a16.725 16.725 0 0010.312-4.844 16.718 16.718 0 004.854-10.419L15.94.058A16.715 16.715 0 005.52 4.91zm12.77 2.076l.116.116c.27.27.27.704 0 .973l-1.078 1.078.718.718c.27.27.27.704 0 .974l-.116.115a.687.687 0 01-.973 0l-.718-.717-2.151 2.15.718.718c.27.27.27.704 0 .974l-.116.116a.687.687 0 01-.973 0L13 13.48l-2.15 2.15.717.719c.27.27.27.704 0 .973l-.115.116a.687.687 0 01-.974 0l-.718-.718-1.078 1.078a.687.687 0 01-.973 0l-.116-.115a.687.687 0 010-.974l1.078-1.078-.718-.718a.687.687 0 010-.974l.116-.115c.27-.27.704-.27.974 0l.717.718 2.151-2.151-.718-.718a.687.687 0 010-.974l.116-.115c.27-.27.704-.27.973 0l.718.718 2.151-2.151-.718-.718a.687.687 0 010-.974l.116-.115c.27-.27.704-.27.974 0l.717.718 1.079-1.079a.691.691 0 01.97.003z"/>
</svg>
