<svg width="13" height="16" viewBox="0 0 13 16" xmlns="http://www.w3.org/2000/svg">
  <path d="M2.49 12.125v-6.24h7.5v6.24a.596.596 0 01-.176.44.596.596 0 01-.439.175H8.76v2.197a.834.834 0 01-.293.645.866.866 0 01-.674.293.835.835 0 01-.645-.293.877.877 0 01-.263-.645V12.74h-1.26v2.197a.834.834 0 01-.293.645.835.835 0 01-.644.293.926.926 0 01-.674-.293.877.877 0 01-.264-.645V12.74h-.615a.7.7 0 01-.469-.175.596.596 0 01-.176-.44zM.264 6.148a.978.978 0 01.673-.263c.254 0 .47.088.645.263.195.176.293.4.293.674v4.365a.926.926 0 01-.293.674.877.877 0 01-.645.264.978.978 0 01-.673-.264.978.978 0 01-.264-.674V6.822c0-.273.088-.498.264-.674zm10.634 0a.877.877 0 01.645-.263c.273 0 .498.088.674.263.195.176.293.4.293.674v4.365a.926.926 0 01-.293.674.912.912 0 01-.674.264.877.877 0 01-.645-.264.978.978 0 01-.263-.674V6.822c0-.273.088-.498.263-.674zM8.467 2.223C9.482 2.965 9.99 3.97 9.99 5.24h-7.5c0-1.25.518-2.256 1.553-3.017l-.82-.82c-.157-.137-.166-.274-.03-.41.157-.157.313-.167.47-.03L4.6 1.9a3.407 3.407 0 011.64-.41c.586 0 1.143.137 1.67.41l.908-.937c.157-.137.303-.127.44.03.156.136.156.273 0 .41l-.791.82zM5.01 4.01v-.645h-.645v.645h.645zm3.105 0v-.645H7.5v.645h.615z"/>
</svg>
