<svg width="11" height="13" viewBox="0 0 11 13" xmlns="http://www.w3.org/2000/svg">
  <path d="M10.524 4.324c-.41.137-.752.46-1.025.967-.273.488-.41.977-.41 1.465 0 .605.156 1.172.469 1.7.312.507.732.83 1.26.966-.157.527-.42 1.074-.792 1.64-.351.547-.713.958-1.084 1.231-.312.215-.703.322-1.171.322-.313 0-.674-.078-1.084-.234-.352-.176-.655-.264-.909-.264-.195 0-.586.117-1.172.352-.351.097-.605.146-.761.146-.469 0-.948-.195-1.436-.586A6.986 6.986 0 01.77 9.656a7.26 7.26 0 01-.586-2.87c0-1.036.293-1.944.879-2.725.605-.801 1.367-1.202 2.285-1.202a3.1 3.1 0 011.406.323c.332.214.664.322.996.322.313 0 .615-.059.908-.176.762-.312 1.27-.469 1.524-.469.683 0 1.279.225 1.787.674.234.235.42.498.556.791zM5.427 2.947c0-.625.244-1.24.732-1.845A3.06 3.06 0 017.946.135c0 .742-.234 1.396-.703 1.963-.527.566-1.133.85-1.816.85z"/>
</svg>
