<svg width="26" height="26" viewBox="0 0 26 26" xmlns="http://www.w3.org/2000/svg">
  <path d="M4.812 14.905l.895-.898 1.492 1.497-.895.897-1.492-1.496zM16.013 2.169h-3.597a.633.633 0 00-.561.34L6.442 12.945 8.05 14.56l8.599-9.974V2.814a.635.635 0 00-.636-.645zM3.912 15.797l-.448.449a4.452 4.452 0 000 6.286 4.424 4.424 0 006.266 0l.44-.456-6.258-6.28zM7.199 17.3l.893-.899 1.493 1.497-.895.897L7.2 17.3zM19.6 5.767h-2.28l-8.374 9.695 1.582 1.586 9.704-8.408V6.402a.638.638 0 00-.634-.637l.002.002zM9.585 19.694l.895-.898 1.492 1.496-.895.9-1.492-1.498zM23.197 9.327h-1.8l-9.97 8.621 1.608 1.613 10.453-5.438a.636.636 0 00.343-.566V9.965a.638.638 0 00-.634-.637z"/>
</svg>
