<svg width="26" height="26" viewBox="0 0 26 26" xmlns="http://www.w3.org/2000/svg">
  <path d="M14.723 24.567l-1.117.03-.012.001a.464.464 0 01-.013-.928l.754-.02c-.159-.347-.322-.69-.498-1.026l-1.114.148a.464.464 0 11-.122-.92l.743-.1c-.194-.327-.4-.648-.611-.964l-1.08.26a.464.464 0 01-.216-.903l.719-.173c-.227-.306-.46-.605-.704-.896l-1.041.37a.465.465 0 01-.312-.876l.701-.248c-.258-.28-.523-.552-.795-.817l-1 .477a.464.464 0 11-.4-.838l.662-.316c-.285-.251-.576-.494-.875-.73l-.935.575a.465.465 0 11-.487-.79l.625-.384a20.71 20.71 0 00-.941-.638l-.876.672a.464.464 0 11-.565-.736l.59-.453c-.33-.188-.668-.363-1.009-.533l-.803.764a.464.464 0 11-.64-.674l.537-.51a20.341 20.341 0 00-1.055-.427l-.72.845a.466.466 0 01-.794-.143.464.464 0 01.087-.459l.486-.57a20.177 20.177 0 00-1.864-.492 12.953 12.953 0 009.6 13.37c.41.116.828.207 1.25.271.208.038.405.061.603.085.063.01.126.017.19.017l.06.004c.263.034.527.052.79.054h.011l.01-.002.067.002c.856.033 1.713-.025 2.557-.172-.069-.214-.142-.433-.222-.657-.068-.187-.148-.366-.221-.55zM25.994 12.64l-.001-.029.003-.03-.01-.042.003-.037a7.483 7.483 0 00-.054-.776l-.003-.056a.965.965 0 00-.016-.162 7.844 7.844 0 00-.085-.604 10.57 10.57 0 00-.279-1.267A12.832 12.832 0 0022.2 3.846 12.937 12.937 0 0010.067.392c.231.636.487 1.26.777 1.864l.499-.562a.465.465 0 01.694.616l-.736.83c.181.334.371.662.57.985l.43-.602a.464.464 0 11.756.54l-.644.9c.215.315.435.625.667.926l.367-.647a.464.464 0 01.807.458l-.546.963c.246.29.502.569.763.844l.294-.675a.465.465 0 01.851.372l-.44 1.008c.275.263.556.517.844.764l.222-.7a.464.464 0 11.886.28l-.334 1.056c.3.232.606.46.92.675l.15-.73a.464.464 0 11.909.186l-.222 1.084c.322.2.651.39.986.572l.071-.737a.464.464 0 01.924.09l-.108 1.104c.343.166.688.324 1.04.47l-.005-.748a.464.464 0 01.46-.468h.004c.255 0 .462.206.464.461l.009 1.123c.356.127.719.241 1.084.35l-.084-.748a.464.464 0 11.922-.104l.125 1.108c.194.047.385.102.581.144.301.065.624.122.959.176.017-.33.023-.658.01-.98z"/>
  <path d="M24.263 14.21l-.584.993a.464.464 0 01-.8-.47l.45-.764a21.41 21.41 0 01-1.213-.389l-.68.92a.465.465 0 01-.747-.552l.532-.72a21.61 21.61 0 01-1.16-.518l-.782.854a.465.465 0 01-.686-.626l.608-.665a20.91 20.91 0 01-1.1-.633l-.869.77a.463.463 0 11-.616-.695l.672-.595c-.35-.238-.692-.49-1.027-.748l-.944.675a.464.464 0 11-.54-.756l.74-.528a21.319 21.319 0 01-.946-.847l-1.016.576a.465.465 0 11-.458-.808l.787-.446a22.12 22.12 0 01-.856-.941l-1.063.464a.464.464 0 11-.371-.852l.826-.36c-.26-.334-.509-.677-.75-1.027l-1.105.35a.464.464 0 11-.28-.885l.859-.272c-.224-.36-.438-.725-.641-1.099L9.37 3.85a.465.465 0 01-.186-.91l.87-.178A21.301 21.301 0 019.166.63c-.014.004-.03.007-.044.012l-.019.02-.14.035a2.284 2.284 0 00-.258.079c-.096.035-.193.07-.286.108-.102.037-.185.067-.264.1A12.974 12.974 0 00.859 8.38l-.023.066c-.04.09-.073.181-.106.271-.025.076-.051.154-.074.236a7.448 7.448 0 00-.203.68c-.032.102-.05.167-.067.233-.11.445-.196.896-.258 1.35.728.152 1.448.341 2.156.568l.055-.888a.464.464 0 11.928.058l-.073 1.156c.398.15.79.31 1.177.482l.15-.89a.464.464 0 11.916.155l-.193 1.144c.38.19.754.389 1.12.6l.243-.869a.464.464 0 01.894.25l-.312 1.12c.357.227.707.467 1.05.715l.334-.843a.464.464 0 11.863.342l-.43 1.088c.332.263.655.536.97.818l.422-.807a.463.463 0 01.803-.034c.09.14.097.316.02.464l-.538 1.03c.303.295.599.599.884.912l.496-.749a.464.464 0 11.775.514l-.643.968c.27.326.53.66.78 1.002l.575-.695a.465.465 0 01.716.592l-.738.893c.236.35.46.71.674 1.076l.64-.627c.118-.116.29-.16.45-.116a.465.465 0 01.2.779l-.817.8c.197.375.38.758.555 1.146l.694-.55a.464.464 0 01.576.727l-.9.715c.072.182.151.36.218.544.096.272.182.532.264.788.094-.023.184-.042.283-.068.365-.094.725-.206 1.079-.337.363-.127.719-.275 1.066-.443a12.926 12.926 0 006.268-6.24c.17-.348.319-.705.449-1.07.13-.353.244-.713.339-1.077.107-.41.185-.773.239-1.11.04-.235.075-.467.103-.698-.378-.06-.74-.124-1.077-.197-.192-.044-.378-.098-.568-.144z"/>
</svg>
