<svg width="26" height="26" viewBox="0 0 26 26" xmlns="http://www.w3.org/2000/svg">
  <path d="M9.60467 10.534C10.6272 10.3284 11.6372 10.0653 12.6301 9.74584C11.3474 7.39418 9.75721 5.27132 7.88859 3.47897C5.14286 4.95353 3.05391 7.58485 2.38019 10.7246C4.40135 11.1314 6.89835 11.0806 9.60467 10.534Z"/>
  <path d="M19.8885 4.69926L19.7105 5.3984C19.4308 6.51703 17.0665 8.11871 13.9648 9.27547L13.825 9.32632C12.5811 6.97085 10.9963 4.812 9.12164 2.91962C10.3165 2.44929 11.6258 2.15268 12.986 2.15268C15.4152 2.15268 17.6766 3.0086 19.4829 4.36875C19.6266 4.46803 19.7622 4.57855 19.8885 4.69926Z"/>
  <path d="M14.3207 13.5212C13.9902 12.6172 13.6216 11.7401 13.2148 10.8898C12.1159 11.2566 10.9951 11.5538 9.85891 11.7797C8.60045 12.0339 6.96064 12.2627 5.23185 12.2627C4.24033 12.2627 3.18102 12.1864 2.1768 11.9958C2.15138 12.3263 2.18104 12.6568 2.18104 13C2.18104 16.3432 3.70644 19.3304 6.08353 21.3134L6.12167 21.0846C6.60471 18.1609 9.98602 15.072 14.3207 13.5212Z"/>
  <path d="M14.7402 14.7161C15.6046 17.4364 16.0876 20.3897 16.1385 23.377C15.1169 23.6895 14.0543 23.8481 12.986 23.8473C10.9394 23.8473 9.01993 23.2329 7.39283 22.2414C7.33125 21.927 7.32694 21.604 7.38012 21.288C7.77418 18.8855 10.9267 16.1016 14.7402 14.7161Z"/>
  <path d="M23.7202 14.5381C23.1863 18.2626 20.716 21.377 17.3855 22.8643C17.2954 19.9681 16.8078 17.0981 15.9364 14.3347C18.7825 13.5466 21.4816 13.6356 23.7202 14.5381Z"/>
  <path d="M23.8333 13.0001V13.2289C21.4054 12.3263 18.5283 12.2882 15.5283 13.1399C15.1978 12.2246 14.8165 11.3348 14.4097 10.4704C16.4991 9.68611 20.3986 7.88019 20.9435 5.70352C22.7104 7.62299 23.8333 10.1908 23.8333 13.0001Z"/>
</svg>
