<svg width="26" height="26" viewBox="0 0 26 26" xmlns="http://www.w3.org/2000/svg">
  <path d="M26 6.141a.762.762 0 00-1.523 0v.768h-6.145v4.57h6.906c.42 0 .762-.341.762-.762V6.141zM19.855 16.202a2.894 2.894 0 01-2.894 2.894H7.516c-.814 0-1.55-.337-2.076-.879l-1.666.331a4.418 4.418 0 003.742 2.072h9.445a4.418 4.418 0 004.418-4.418v-3.2h-1.524v3.2z"/>
  <path d="M9.191 15.288v-.582c0-.61.324-1.147.808-1.447l.755 2.264a.762.762 0 101.445-.481l-.634-1.9c.03.012.061.026.091.041l2.527 1.264c.105.053.222.08.34.08h1.524c.42 0 .762-.341.762-.762v-3.047c0 .42-.341.762-.762.762h-1.504a.775.775 0 01-.777-.675.762.762 0 01.757-.848h1.504a.77.77 0 01.782.76V6.91H9.953a3.815 3.815 0 00-3.732 3.047H.761a.762.762 0 00-.761.761v6.08c0 .517.456.852.91.761l7.668-1.523a.763.763 0 00.613-.748z"/>
</svg>
