<svg width="26" height="26" viewBox="0 0 26 26" xmlns="http://www.w3.org/2000/svg">
  <g clip-path="url(#clip0)">
    <path d="M13 26c7.18 0 13-5.82 13-13S20.18 0 13 0 0 5.82 0 13s5.82 13 13 13zm3.807-19.964a6.964 6.964 0 110 13.928 6.964 6.964 0 010-13.928z"/>
    <path d="M14.357 14.522c0 .994.858 2.045 2.723 2.045 1.706 0 2.825-.903 2.825-2.237 0-.937-.633-1.547-1.356-1.819v-.033c.734-.362 1.073-.984 1.073-1.616 0-.892-.712-1.887-2.43-1.887-1.468 0-2.586.825-2.586 2.067 0 .645.35 1.244 1.062 1.616v.023c-.803.35-1.31.96-1.31 1.841zm2.757-4.385c.632 0 .892.453.892.916 0 .452-.35.815-.745.927-.588-.18-1.029-.497-1.029-.995 0-.45.294-.848.882-.848zM17 13.256c.667.181 1.152.565 1.152 1.21 0 .519-.408.915-1.006.915a1.007 1.007 0 01-1.04-1.029c.001-.53.328-.937.894-1.095v-.001z"/>
  </g>
  <defs>
    <clipPath id="clip0">
      <path d="M0 0h26v26H0V0z" />
    </clipPath>
  </defs>
</svg>
