<svg width="26" height="26" viewBox="0 0 26 26" xmlns="http://www.w3.org/2000/svg">
  <g clip-path="url(#clip0)"><path d="M10.408 19.01l-.007.007.25 1.385 1.428.243.006-.006-.273-1.363-1.404-.265z"/>
    <path d="M23.044 8.37c-5.538-5.378-8.716-2.615-9.23-.739-.243.896-.22 1.269-.22 1.269-.833-.398-2.958-.958-4.783 5.544l-3.924 4.691A18.535 18.535 0 0011.957 26l4.831-3.81c1.568-.71 4.117-.988 5.746-2.57 3.34-3.244 5.523-6.384.51-11.25zm-7.827 11.544a.856.856 0 01-.597.24.856.856 0 01-.596-.24.81.81 0 01-.178-.256l-1.029-.194.2 1a.817.817 0 01.508.826.803.803 0 01-.361.6.857.857 0 01-.705.115.851.851 0 01-.324-.168.82.82 0 01-.219-.285l-1.089-.185.191 1.057a.812.812 0 01.48.585.797.797 0 01-.047.474.825.825 0 01-.31.368.862.862 0 01-.938 0 .825.825 0 01-.31-.368.797.797 0 01.191-.9l-.249-1.385-1.426-.244-.008.008a.866.866 0 01-.92.178.838.838 0 01-.378-.301.802.802 0 010-.91.838.838 0 01.379-.302.866.866 0 01.919.178c.072.07.13.152.17.242l1.09.186-.19-1.057a.84.84 0 01-.32-.244.807.807 0 01-.137-.751.815.815 0 01.212-.335.85.85 0 01.754-.22c.134.026.26.083.367.167.106.084.19.191.244.314l1.03.193-.203-1a.835.835 0 01-.396-.338.8.8 0 01.105-.966.865.865 0 01.982-.187.833.833 0 01.383.352.798.798 0 01-.143.962l.272 1.364 1.404.264a.858.858 0 01.598-.239c.224.001.439.088.597.242a.808.808 0 01.246.58c0 .218-.09.426-.25.58zM6.6 15.773l-.356-.447-1.377.38a.044.044 0 00-.003.009l.856 1.11.88-1.052z"/><path d="M3.445 17.296a.85.85 0 01.266.142l1.057-.312-.663-.86a.846.846 0 01-.79-.447.797.797 0 01-.05-.625.826.826 0 01.421-.475.866.866 0 01.921.102l1.009-.279-.643-.805a.848.848 0 01-.716-.31.805.805 0 01.281-1.235.865.865 0 01.93.107.816.816 0 01.263.4.796.796 0 01-.009.474L6.6 14.27l1.376-.38a.805.805 0 01.205-.321c.775-2.472 1.593-3.82 1.593-3.82S8.93 7.562 6.36 8.537c3.042-1.4.833-3.64.833-3.64s2.617 1.934 5.146 2.99a2.685 2.685 0 01.54-.023c.03-.134.067-.281.112-.442.352-1.29 1.558-2.665 3.438-2.959-.625-1.362-2.12-2.797-5.24-3.79C4.452-1.473 2.554 1.836 1.083 6.195c-.718 2.127.176 4.46.235 6.138L0 18.243c1.41.9 2.937 1.617 4.54 2.132l.16.05c-.188-.284-.37-.576-.548-.875l-.294-.494.776-.928-.648.19v.01a.819.819 0 01-.28.39.857.857 0 01-.934.07.83.83 0 01-.34-.343.798.798 0 01.112-.902.846.846 0 01.412-.256c.16-.044.33-.04.49.01z"/>
  </g>
  <defs>
    <clipPath id="clip0">
      <path d="M0 0h26v26H0V0z"/>
    </clipPath>
  </defs>
</svg>
