<svg width="20" height="20" viewBox="0 0 20 20" xmlns="http://www.w3.org/2000/svg">
  <g clip-path="url(#clip0)">
    <path d="M4.03973 14.2662L4.03973 19.6129C4.03973 19.9604 4.32146 20.2422 4.66903 20.2422L7.859 20.2422C8.20657 20.2422 8.48831 19.9604 8.48831 19.6129C8.48831 18.7793 9.16646 18.1012 10.0001 18.1012C10.8337 18.1012 11.5117 18.7793 11.5117 19.6129C11.5117 19.9604 11.7935 20.2422 12.141 20.2422L15.331 20.2422C15.6786 20.2422 15.9604 19.9604 15.9604 19.6129L15.9604 14.2662L4.03973 14.2662Z"/>
    <path d="M8.4883 0.871461C8.4883 0.523925 8.20657 0.242152 7.859 0.242152L4.66903 0.242152C4.32146 0.242152 4.03973 0.523925 4.03973 0.871461L4.03973 13.0076L15.9604 13.0076L15.9604 0.871461C15.9604 0.523925 15.6787 0.242152 15.3311 0.242152L12.1411 0.242152C11.7935 0.242152 11.5118 0.523925 11.5118 0.871461C11.5118 1.70502 10.8337 2.38318 10.0001 2.38318C9.16646 2.38318 8.4883 1.70502 8.4883 0.871461Z"/>
  </g>
  <defs>
    <clipPath id="clip0">
      <rect y="20" width="20" height="20" transform="rotate(-90 0 20)"/>
    </clipPath>
  </defs>
</svg>
