<svg width="26" height="26" viewBox="0 0 26 26" xmlns="http://www.w3.org/2000/svg">
  <g clip-path="url(#clip0)">
    <path d="M10.664 19.957a4.626 4.626 0 01-4.621-4.621c0-3.768 4.285-5.941 7.318-3.75l-3.16 3.16a.762.762 0 001.078 1.079l3.156-3.157c2.152 3.033-.013 7.289-3.77 7.289z"/>
    <path d="M20.248 10.664c-2.776 0-2.985.066-3.586-.223l-1.14 1.137c3.106 4.005.25 9.902-4.858 9.902a6.151 6.151 0 01-6.144-6.144c0-5.122 5.924-7.978 9.929-4.838l1.135-1.135c-.289-.602-.223-.809-.223-3.6C8.316 2.293 0 7.448 0 15.336 0 21.216 4.784 26 10.664 26c7.878 0 13.032-8.296 9.585-15.336z"/><path d="M21.455 3.493l-4.57 4.57V3.81a.762.762 0 01.222-.54L20.154.224c.478-.477 1.3-.14 1.3.539v2.731zM25.776 5.897l-3.02 3.021a.762.762 0 01-.54.223h-4.254l4.545-4.545h2.731c.678 0 1.016.823.538 1.3z"/>
  </g>
  <defs>
    <clipPath id="clip0">
      <path d="M0 0h26v26H0V0z"/>
    </clipPath>
  </defs>
</svg>
