<svg width="24" height="24" viewBox="0 0 24 24" xmlns="http://www.w3.org/2000/svg">
  <path d="M14.8906 7.85938C14.1367 7.85938 13.5234 7.24609 13.5234 6.49219V2H6.53125C5.34648 2 4.38281 2.96367 4.38281 4.14844V19.8516C4.38281 21.0363 5.34648 22 6.53125 22H17.4688C18.6535 22 19.6172 21.0363 19.6172 19.8516V7.85938H14.8906ZM7.58594 16.0625H10.4266C10.75 16.0625 11.0125 16.325 11.0125 16.6484C11.0125 16.9719 10.75 17.2344 10.4266 17.2344H7.58594C7.2625 17.2344 7 16.9719 7 16.6484C7 16.325 7.2625 16.0625 7.58594 16.0625ZM7 13.5234C7 13.2 7.2625 12.9375 7.58594 12.9375H16.1797C16.5031 12.9375 16.7656 13.2 16.7656 13.5234C16.7656 13.8469 16.5031 14.1094 16.1797 14.1094H7.58594C7.2625 14.1094 7 13.8469 7 13.5234ZM16.1797 9.8125C16.5031 9.8125 16.7656 10.075 16.7656 10.3984C16.7656 10.7219 16.5031 10.9844 16.1797 10.9844H7.58594C7.2625 10.9844 7 10.7219 7 10.3984C7 10.075 7.2625 9.8125 7.58594 9.8125H16.1797Z"/>
  <path d="M14.6952 6.49224C14.6952 6.60005 14.7827 6.68755 14.8905 6.68755H19.3558C19.2487 6.4895 19.1108 6.30786 18.9448 6.15122L15.1784 2.58794C15.0323 2.44966 14.8694 2.33442 14.6948 2.24341L14.6952 6.49224Z"/>
</svg>
