<svg width="26" height="26" viewBox="0 0 26 26" xmlns="http://www.w3.org/2000/svg">
  <g clip-path="url(#clip0)">
    <path d="M26 11.48a6.875 6.875 0 00-6.823-6.875H6.823A6.875 6.875 0 000 11.48v5.688a4.227 4.227 0 008.33 1.024A6.87 6.87 0 0013 14.578a6.881 6.881 0 004.67 3.614A4.226 4.226 0 0026 17.168v-5.153-.267-.268zm-15.185 1.116H7.99v2.824H5.753v-2.824H2.935v-2.238h2.818V7.54H7.99v2.818h2.825v2.238zm8.316-5.871a1.604 1.604 0 11-1.604 1.605 1.605 1.605 0 011.604-1.592v-.013zm-3.137 6.347a1.605 1.605 0 111.618-1.592 1.606 1.606 0 01-1.618 1.605v-.013zm3.137 3.137a1.605 1.605 0 111.605-1.604 1.605 1.605 0 01-1.605 1.617v-.013zm3.131-3.137a1.604 1.604 0 111.605-1.605 1.61 1.61 0 01-1.605 1.618v-.013z"/>
  </g>
  <defs>
    <clipPath id="clip0">
      <path d="M0 0h26v26H0V0z"/>
    </clipPath>
  </defs>
</svg>
