<svg width="8" height="16" viewBox="0 0 8 16" xmlns="http://www.w3.org/2000/svg">
  <path d="M7.69829 0.00332883L5.77872 0C3.62363 0 2.23052 1.54457 2.23052 3.938V5.75387H0.301713C0.135463 5.75387 0 5.90034 0 6.0801V8.70987C0 8.88963 0.135463 9.0361 0.301713 9.0361H2.23052V15.6738C2.23052 15.8535 2.36598 16 2.53223 16H5.04907C5.21532 16 5.35078 15.8535 5.35078 15.6738V9.0361H7.60747C7.77372 9.0361 7.90918 8.88963 7.90918 8.70987L7.91072 6.0801C7.91072 5.99355 7.87839 5.91033 7.82297 5.84875C7.76756 5.78716 7.68905 5.75221 7.609 5.75221H5.35078V4.21263C5.35078 3.47363 5.51395 3.09747 6.40523 3.09747H7.69829C7.86454 3.09747 8 2.951 8 2.77125V0.329554C8 0.149797 7.86454 0.00332883 7.69829 0.00332883Z"/>
</svg>
