<svg width="26" height="26" viewBox="0 0 26 26" xmlns="http://www.w3.org/2000/svg">
  <path d="M13 2.167C7.027 2.167 2.167 7.027 2.167 13S7.027 23.833 13 23.833 23.833 18.973 23.833 13 18.973 2.167 13 2.167zm.688 3.52l2.785-1.498a9.521 9.521 0 013.913 2.884l-.664 3.063-2.125 1.041-3.909-2.848V5.686zM9.55 4.18l2.786 1.503V8.33L8.43 11.177l-2.137-1.042-.664-3.082A9.513 9.513 0 019.55 4.18zM5.186 18.357a9.414 9.414 0 01-1.618-4.436l2.293-2.49 2.09 1.022 1.576 4.473-1.332 1.595-3.009-.164zm10.229 3.8a9.306 9.306 0 01-5.312-.132l-.852-2.651 1.359-1.634h4.786l1.334 1.578-1.315 2.84zm2.37-3.681l-1.31-1.55 1.596-4.472 2.083-1.02 2.279 2.489a9.385 9.385 0 01-1.28 3.888l-3.369.665z"/>
</svg>
