<svg width="26" height="26" viewBox="0 0 26 26" xmlns="http://www.w3.org/2000/svg">
  <g clip-path="url(#clip0)">
    <path d="M23.85 11.671v-4.17c0-1.354-1.37-2.404-2.857-2.088v-.115c0-.358-.101-.71-.293-1.023a2.215 2.215 0 00-.803-.766h-.303c-.202 0-1.012-.238-1.622.217-.578.432-.73 1.317-.73 1.727V7.6a.543.543 0 01-.175.398.66.66 0 01-.67.137.626.626 0 01-.204-.12.56.56 0 01-.136-.183.514.514 0 01-.048-.216c0-.1-.023-.198-.066-.29a.74.74 0 00-.186-.243.83.83 0 00-.278-.157.863.863 0 00-.874.194.711.711 0 00-.22.517v6.566c0 .148-.064.29-.18.395a.65.65 0 01-.436.164h-.83c-.341 0-.669.124-.91.344-.242.22-.378.517-.378.827 0 4.074-.07 4.294.342 4.69.413.396.883.758 1.408 1.276.129.117.09-.047.09 3.27 0 .216.095.422.263.575a.946.946 0 00.634.238l7.676.017a.945.945 0 00.633-.238.776.776 0 00.263-.575c.027-3.093-.059-2.98.075-3.12l1.46-1.551c.97-1.028 1.503-2.337 1.503-3.69v-2.861c0-.551-.217-1.085-.61-1.505-.394-.42-.94-.7-1.54-.79l.002.001zM11.683 19.91zM1.743 10.435C6.064 8.946 10.848 4.93 11.857.85c.211-.849.183-.74.19-.758C5.06-.777-.829 4.671.095 10.903a56.244 56.244 0 001.648-.468z"/><path d="M1.594 14.682c.936 1.367 2.235 2.5 3.778 3.295a11.47 11.47 0 005.058 1.255c-.018-.941-.014-1.45-.014-3.3 0-.607.266-1.188.739-1.617a2.665 2.665 0 011.782-.672h.214V12.08c-4.284 1.765-8.829 2.603-11.557 2.603zM13.794.447c-.003.018-.06.241-.188.758C12.46 5.844 7.27 10.27 2.381 11.955c-.272.093-1.37.396-1.894.537.066.19.139.378.218.565.046-.003-.059 0 1.373 0 6.016-.374 10.791-2.681 11.075-2.765V7.617c0-1.337 1.518-2.228 2.857-1.701V5.45c0-1.158.566-2.438 1.771-2.917A10.917 10.917 0 0013.795.447z"/>
  </g>
  <defs>
    <clipPath id="clip0">
      <path d="M0 0h26v26H0V0z"/>
    </clipPath>
  </defs>
</svg>
