<svg width="15" height="19" viewBox="0 0 15 19" xmlns="http://www.w3.org/2000/svg">
  <path fill-rule="evenodd" clip-rule="evenodd" d="M10.906 3.908c.18 1.98-.649 2.52-.649 2.52C9.14.74 5.932.057 5.932.057c.794 3.132-2.92 8.062-2.92 8.062.18-2.051-.72-2.771-.72-2.771C1.93 7.615.883 8.443.306 10.783c-1.444 6.13 2.837 7.743 4.292 8.109-.982-.788-2.855-3.148 1.188-7.929 0 0 .072 1.512.397 1.764 0 0 1.694-1.368 1.514-4.392 0 0 6.065 4.033 1.862 10.606 9.143-2.59 1.346-15.033 1.346-15.033z" fill="url(#paint0_linear)"/>
  <defs>
    <linearGradient id="paint0_linear" x1="-3" y1="10.55" x2="18.106" y2="6.692" gradientUnits="userSpaceOnUse"><stop stop-color="#EE2B31"/><stop offset="1" stop-color="#9E1215"/></linearGradient>
  </defs>
</svg>
