<svg width="18" height="18" xmlns="http://www.w3.org/2000/svg">
  <path d="M13.033 0H4.967A4.973 4.973 0 000 4.967v8.065A4.972 4.972 0 004.967 18h8.065A4.973 4.973 0 0018 13.032V4.967A4.973 4.973 0 0013.033 0zm3.37 13.033a3.373 3.373 0 01-3.37 3.37H4.966a3.374 3.374 0 01-3.37-3.37V4.967a3.374 3.374 0 013.37-3.37h8.065a3.375 3.375 0 013.37 3.37v8.066z"/>
  <path d="M9 4.362A4.643 4.643 0 004.362 9 4.643 4.643 0 009 13.638 4.643 4.643 0 0013.638 9 4.643 4.643 0 009 4.362zm0 7.679A3.044 3.044 0 015.96 9 3.044 3.044 0 019 5.96 3.044 3.044 0 0112.04 9 3.044 3.044 0 019 12.04zM13.833 3.008a1.176 1.176 0 00-1.171 1.171c0 .308.125.61.343.828.218.218.52.343.828.343.309 0 .61-.125.828-.343a1.176 1.176 0 000-1.657 1.176 1.176 0 00-.828-.342z"/>
</svg>
