<svg width="20" height="20" viewBox="0 0 20 20" xmlns="http://www.w3.org/2000/svg">
  <g clip-path="url(#clip0)">
    <path d="M17.5009 3.1239H5.00529C4.31518 3.1239 3.75573 3.68335 3.75573 4.37346C3.75573 5.06357 4.31518 5.62302 5.00529 5.62302H17.5009C18.191 5.62302 18.7505 5.06357 18.7505 4.37346C18.7505 3.68335 18.191 3.1239 17.5009 3.1239Z"/>
    <path d="M2.5062 4.37351C2.50479 4.04265 2.37222 3.72585 2.13758 3.49257C1.65021 3.00809 0.863068 3.00809 0.3757 3.49257C0.141017 3.72585 0.00844631 4.04265 0.0070796 4.37351C-0.00225305 4.45446 -0.00225305 4.53623 0.0070796 4.61717C0.0212153 4.69859 0.044254 4.77821 0.0758054 4.85459C0.109348 4.92859 0.149061 4.99966 0.194514 5.06702C0.239381 5.13707 0.291745 5.20201 0.350709 5.2607C0.407564 5.31732 0.470393 5.36761 0.538143 5.41065C0.60394 5.45856 0.675282 5.49843 0.750568 5.52935C0.83339 5.57231 0.92168 5.60386 1.01298 5.62307C1.09392 5.63213 1.17569 5.63213 1.25664 5.62307C1.5866 5.62334 1.90329 5.49308 2.13758 5.2607C2.19654 5.20201 2.24891 5.13707 2.29378 5.06702C2.33923 4.99966 2.37894 4.92859 2.41248 4.85459C2.45235 4.77915 2.48379 4.69953 2.5062 4.61717C2.51553 4.53623 2.51553 4.45446 2.5062 4.37351Z"/>
    <path d="M2.50614 9.99643C2.51544 9.91549 2.51544 9.83372 2.50614 9.75277C2.48455 9.67213 2.45308 9.59451 2.41243 9.5216C2.38025 9.44495 2.34046 9.37169 2.29372 9.30293C2.25041 9.23366 2.19785 9.17059 2.13752 9.11549C1.65016 8.63102 0.863011 8.63102 0.375643 9.11549C0.14096 9.34877 0.00838956 9.66557 0.00702286 9.99643C0.00944388 10.1611 0.0411905 10.324 0.10074 10.4775C0.132057 10.5514 0.1697 10.6225 0.2132 10.6899C0.260723 10.7578 0.315157 10.8207 0.375643 10.8774C0.430858 10.9376 0.493883 10.9901 0.563077 11.0336C0.628875 11.0815 0.700178 11.1214 0.775503 11.1523C0.851687 11.1843 0.931386 11.2074 1.01292 11.221C1.09285 11.2389 1.17466 11.2473 1.25658 11.246C1.33753 11.2553 1.4193 11.2553 1.50025 11.246C1.57975 11.2324 1.65738 11.2093 1.73142 11.1773C1.80877 11.1466 1.88218 11.1067 1.95009 11.0586C2.01928 11.0151 2.08231 10.9626 2.13752 10.9024C2.19774 10.8472 2.2503 10.7841 2.29372 10.7149C2.34175 10.6492 2.38162 10.5779 2.41243 10.5025C2.45511 10.4196 2.48662 10.3313 2.50614 10.2401C2.51575 10.1592 2.51575 10.0774 2.50614 9.99643Z"/>
    <path d="M2.50613 15.6195C2.51538 15.5385 2.51538 15.4568 2.50613 15.3758C2.48453 15.2932 2.45306 15.2135 2.41241 15.1384C2.37887 15.0644 2.33916 14.9933 2.2937 14.926C2.25028 14.8568 2.19772 14.7938 2.13751 14.7385C1.65014 14.2541 0.862996 14.2541 0.375628 14.7385C0.315415 14.7938 0.262855 14.8568 0.219433 14.926C0.17398 14.9933 0.134268 15.0644 0.100725 15.1384C0.0683145 15.2145 0.0452366 15.2942 0.0319991 15.3758C0.0143881 15.4558 0.00603168 15.5376 0.0070079 15.6195C0.00841366 15.9503 0.140984 16.2671 0.375628 16.5004C0.430843 16.5606 0.493868 16.6132 0.563062 16.6566C0.628859 16.7046 0.700163 16.7444 0.775488 16.7753C0.851672 16.8074 0.93137 16.8305 1.0129 16.844C1.09284 16.862 1.17464 16.8704 1.25657 16.869C1.33752 16.8784 1.41928 16.8784 1.50023 16.869C1.57974 16.8554 1.65736 16.8323 1.7314 16.8003C1.80876 16.7696 1.88217 16.7298 1.95007 16.6816C2.01927 16.6382 2.08229 16.5856 2.13751 16.5254C2.19772 16.4702 2.25028 16.4072 2.2937 16.338C2.34177 16.2723 2.38164 16.2009 2.41241 16.1256C2.45505 16.0426 2.48657 15.9544 2.50613 15.8631C2.51573 15.7822 2.51573 15.7004 2.50613 15.6195Z"/>
    <path d="M18.7505 8.74689H5.00529C4.31518 8.74689 3.75573 9.30634 3.75573 9.99645C3.75573 10.6866 4.31518 11.246 5.00529 11.246H18.7505C19.4406 11.246 20 10.6866 20 9.99645C20 9.30634 19.4406 8.74689 18.7505 8.74689Z"/>
    <path d="M13.1274 14.3699H5.00529C4.31519 14.3699 3.75573 14.9294 3.75573 15.6195C3.75573 16.3096 4.31519 16.8691 5.00529 16.8691H13.1274C13.8176 16.8691 14.377 16.3096 14.377 15.6195C14.377 14.9294 13.8176 14.3699 13.1274 14.3699Z"/>
  </g>
  <defs>
    <clipPath id="clip0">
      <rect width="20" height="20"/>
    </clipPath>
  </defs>
</svg>
