<svg width="19" height="22" viewBox="0 0 19 22" xmlns="http://www.w3.org/2000/svg">
  <g clip-path="url(#clip0)">
    <path d="M16.959 5.74H2.041c-.541 0-1.06.222-1.443.616A2.14 2.14 0 000 7.843v9.183c0 .558.216 1.093.598 1.487.383.395.902.617 1.443.617h14.918c.541 0 1.06-.222 1.442-.617A2.14 2.14 0 0019 17.026V7.843a2.14 2.14 0 00-.599-1.487 2.012 2.012 0 00-1.442-.617zm.186 10.904a.583.583 0 01-.163.405.548.548 0 01-.394.168H2.412a.548.548 0 01-.393-.168.583.583 0 01-.164-.405V8.226c0-.152.06-.298.164-.406a.548.548 0 01.393-.168h14.176c.147 0 .29.06.393.168a.583.583 0 01.163.406v8.417z"/><rect x="4.75" y="20.087" width="9.5" height="1.913" rx=".957"/><path d="M7.75 4.334a3.186 3.186 0 00-.672.598h4.844a3.177 3.177 0 00-.673-.598L12.97.806a.564.564 0 00-.247-.767.553.553 0 00-.753.275l-1.744 3.58a3.201 3.201 0 00-1.447 0L7.034.314a.56.56 0 00-.537-.322.554.554 0 00-.495.383.564.564 0 00.032.432l1.717 3.527z"/>
  </g>
  <defs>
    <clipPath id="clip0">
      <path d="M0 0h19v22H0z"/>
    </clipPath>
  </defs>
</svg>
