<svg width="10" height="15" viewBox="0 0 10 15" xmlns="http://www.w3.org/2000/svg">
  <path d="M8.76 5.385c.332 0 .615.127.85.38.253.235.38.518.38.85v6.27c0 .332-.127.615-.38.85-.235.253-.518.38-.85.38h-7.5a1.24 1.24 0 01-.908-.38 1.158 1.158 0 01-.352-.85v-6.27c0-.332.117-.615.352-.85a1.24 1.24 0 01.908-.38h.615v-1.26c0-.86.303-1.592.908-2.197C3.408 1.303 4.15.99 5.01.99c.86 0 1.592.313 2.197.938.606.605.908 1.338.908 2.197v1.26h.645zm-4.658 5.273c.253.235.546.352.878.352.352 0 .645-.117.88-.352a1.24 1.24 0 00.38-.908c0-.352-.127-.645-.38-.879a1.146 1.146 0 00-.88-.38c-.332 0-.625.126-.878.38a1.193 1.193 0 00-.352.879c0 .352.117.654.352.908zm2.841-5.273v-1.26a1.79 1.79 0 00-.586-1.348 1.823 1.823 0 00-1.377-.586 1.79 1.79 0 00-1.347.586c-.371.371-.557.82-.557 1.348v1.26h3.867z"/>
</svg>
