<svg width="26" height="26" viewBox="0 0 26 26" xmlns="http://www.w3.org/2000/svg">
  <path d="M8.25 19.91v3.757A2.336 2.336 0 0010.58 26h9.072a2.336 2.336 0 002.331-2.331V19.91L8.25 19.909zm9.913 2.91a.653.653 0 01-.653.653h-4.785a.653.653 0 01-.653-.653v-.379a.653.653 0 01.653-.652h4.785a.653.653 0 01.653.652v.38zM20.834.72A23.482 23.482 0 009.464.678L9.247.73a3.825 3.825 0 00-2.91 4.072c0 .018.004.036.006.054l.879 6.374-.423-.403a2.102 2.102 0 00-3.065.188l-.982 1.188a2.103 2.103 0 00.392 3.047l4.702 3.362h14.148L23.71 4.824c0-.014.003-.027.004-.041A3.83 3.83 0 0020.834.72z"/>
</svg>
