<svg width="26" height="26" viewBox="0 0 26 26" xmlns="http://www.w3.org/2000/svg">
  <path d="M23.44 15.01V9.868c0-2.014-1.848-8.265-9.955-7.66-5.846.433-8.33 4.434-9.261 6.632-.006.015-.008.03-.013.045a.495.495 0 00-.078.104c-.093.196-2.249 4.872-1.852 9.925.005.065.023.13.054.188v.036c.206 1.568.883 2.96 1.452 3.9.435.718 1.506.983 2.288.659l15.95-6.589c.78-.325 1.414-1.263 1.414-2.098zm-10.373-4.596c-.555 1.555-1.766 4.023-4.201 5.703-2.095 1.446-3.877 1.757-5.055 1.744a2.104 2.104 0 00-.55.069c-.052-3.166.875-6.124 1.42-7.577.168.108.362.173.564.19 1.26.11 3.091-.005 4.647-1.179.971-.734 1.71-.987 2.26-1.012.849-.038 1.197 1.275.916 2.062zm6.267 4.897c-.274 0-.541-.08-.77-.23a1.365 1.365 0 01-.51-.61 1.338 1.338 0 01.301-1.483 1.41 1.41 0 011.51-.295c.253.104.47.278.622.502a1.343 1.343 0 01-.173 1.718 1.385 1.385 0 01-.98.398z"/>
</svg>
