<svg width="20" height="20" viewBox="0 0 20 20" xmlns="http://www.w3.org/2000/svg">
  <path d="M13.523 16.982h-1.525a.607.607 0 010-1.213h1.525a.607.607 0 010 1.213zM8.45 1.287h3.339c.073 0 .135-.05.151-.12L12.23 0H8.066L8.3 1.172a.154.154 0 00.15.115zM7.323 6.018h5.594v1.888H7.323V6.018zM7.323 11.26H9.1v4.51H7.323v-4.51z"/>
  <path d="M14.253 0h-.774l-.357 1.442A1.361 1.361 0 0111.789 2.5H8.45a1.362 1.362 0 01-1.337-1.08L6.829 0h-.843A1.989 1.989 0 004 1.986v16.028C4 19.109 4.891 20 5.986 20h8.267a1.989 1.989 0 001.986-1.986V1.986A1.989 1.989 0 0014.253 0zm-3.939 16.376a.607.607 0 01-.607.606h-2.99a.607.607 0 01-.607-.606v-5.723c0-.335.271-.606.606-.606h2.991c.335 0 .607.271.607.606v5.723zm3.21-2.255h-1.526a.607.607 0 010-1.213h1.525a.607.607 0 010 1.213zm0-2.86h-1.526a.607.607 0 010-1.214h1.525a.606.606 0 110 1.213zm.606-2.749a.607.607 0 01-.607.607H6.716a.607.607 0 01-.606-.607v-3.1c0-.335.271-.607.606-.607h6.807c.335 0 .607.272.607.607v3.1z"/>
</svg>
