<svg width="26" height="26" viewBox="0 0 26 26" xmlns="http://www.w3.org/2000/svg">
  <path d="M16.393 2.42a23.284 23.284 0 015.058-.196 2.516 2.516 0 012.322 2.321c.122 1.69.058 3.389-.188 5.066l-7.192-7.192zM2.415 16.39a23.326 23.326 0 00-.188 5.066 2.516 2.516 0 002.319 2.32 23.107 23.107 0 005.061-.194L2.415 16.39zm20.901-5.337c-.596 2.676-1.813 5.569-4.156 8.079l-.03.029c-2.497 2.336-5.386 3.555-8.08 4.154l-8.366-8.367C3.28 12.273 4.497 9.38 6.84 6.87l.03-.029c2.497-2.336 5.386-3.554 8.082-4.153l8.364 8.366zm-5.832.047l-.865-.864.674-.673a.607.607 0 00-.859-.854l-.672.672-.864-.865a.604.604 0 00-.855.855l.864.865-.985.988-.865-.865a.604.604 0 00-.854.855l.864.868-.985.986-.868-.865a.605.605 0 00-.855.855l.864.865-.988.988-.864-.865a.604.604 0 00-.855.855l.865.864-.673.67a.605.605 0 00.855.857l.672-.674.865.865a.609.609 0 00.857.004.606.606 0 00.004-.857l-.865-.864.986-.988.864.864a.604.604 0 10.855-.855l-.864-.864.985-.994.864.864a.605.605 0 00.855-.855l-.864-.856.989-.988.864.867a.605.605 0 00.987-.664.607.607 0 00-.133-.197z"/>
</svg>
