<svg width="26" height="26" viewBox="0 0 26 26" xmlns="http://www.w3.org/2000/svg">
  <g clip-path="url(#clip0)">
    <path d="M23.038 26C24.674 26 26 24.652 26 22.99c0-1.663-1.326-3.011-2.962-3.011-1.637 0-2.963 1.348-2.963 3.01 0 1.663 1.326 3.011 2.963 3.011zM21.206 3.169A10.632 10.632 0 0016.74.454 10.5 10.5 0 0011.54.212a10.593 10.593 0 00-4.693 2.287A10.83 10.83 0 003.778 6.77l13.884 14.11a10.674 10.674 0 004.204-3.12 10.91 10.91 0 002.25-4.769c.351-1.754.27-3.57-.238-5.284a10.873 10.873 0 00-2.672-4.54zM3.034 9.977a11 11 0 001.681 6.751L.158 21.36a.553.553 0 000 .774l2.387 2.426a.535.535 0 00.762 0l4.557-4.633a10.549 10.549 0 007.84 1.543L3.197 8.76c-.078.402-.132.808-.164 1.216z"/>
  </g>
  <defs>
    <clipPath id="clip0">
      <path d="M0 0h26v26H0V0z"/>
    </clipPath>
  </defs>
</svg>
