<svg width="26" height="26" viewBox="0 0 26 26" xmlns="http://www.w3.org/2000/svg">
  <path d="M11.986 2.209a10.83 10.83 0 00-9.777 9.777 13.568 13.568 0 017.813 3.992 13.505 13.505 0 013.992 7.818 10.83 10.83 0 009.777-9.777 13.52 13.52 0 01-7.813-3.991 13.504 13.504 0 01-3.992-7.819z"/>
  <path d="M23.833 12.675A10.826 10.826 0 0013.326 2.167a12.286 12.286 0 003.61 6.881 12.25 12.25 0 006.897 3.627zM2.167 13.33a10.825 10.825 0 0010.502 10.503 12.212 12.212 0 00-3.62-6.897 12.265 12.265 0 00-6.882-3.605z"/>
</svg>
