<svg width="17" height="14" xmlns="http://www.w3.org/2000/svg">
  <path d="M17 1.657a7.196 7.196 0 01-2.008.558A3.505 3.505 0 0016.525.263a6.908 6.908 0 01-2.21.855A3.47 3.47 0 0011.77 0C9.84 0 8.286 1.587 8.286 3.533c0 .28.023.55.08.806-2.896-.143-5.46-1.55-7.183-3.695A3.592 3.592 0 00.706 2.43a3.55 3.55 0 001.548 2.935A3.407 3.407 0 01.68 4.93v.039c0 1.717 1.208 3.143 2.792 3.471a3.429 3.429 0 01-.914.116c-.223 0-.448-.012-.66-.06.452 1.4 1.733 2.428 3.257 2.461a6.943 6.943 0 01-4.32 1.507c-.287 0-.56-.013-.835-.049A9.72 9.72 0 005.346 14c6.414 0 9.92-5.385 9.92-10.052a9.31 9.31 0 00-.013-.457A7.002 7.002 0 0017 1.657z"/>
</svg>
