<svg width="26" height="26" viewBox="0 0 26 26" xmlns="http://www.w3.org/2000/svg">
  <path d="M19.964 6.792v7.023h-1.393V5.312c0-1.122-.44-2.197-1.223-2.99a4.154 4.154 0 00-2.955-1.239H9.518a6.23 6.23 0 00-4.432 1.858A6.381 6.381 0 003.25 7.426V10.8c0 3.037.781 6.077 2.251 8.7h14.271a10.25 10.25 0 002.201-3.321c.511-1.243.775-2.576.777-3.922v-2.012a3.555 3.555 0 00-.786-2.228 3.48 3.48 0 00-2-1.225zM12.655 22.75a3.585 3.585 0 01-.738 2.167h6.5v-4.334h-6.5c.476.622.736 1.383.738 2.167zM9.48 20.583H5.416v4.334h4.062a2.6 2.6 0 001.724-.635c.457-.406.714-.957.714-1.532 0-.575-.257-1.126-.714-1.532a2.6 2.6 0 00-1.724-.635z"/>
</svg>
