<svg width="16" height="9" xmlns="http://www.w3.org/2000/svg">
  <path d="M15.915 8.128a1.032 1.032 0 00-.054-.103c-.278-.493-.809-1.098-1.591-1.815l-.017-.016-.008-.008-.009-.009h-.008c-.356-.334-.58-.558-.675-.673-.172-.22-.21-.441-.117-.666.067-.17.317-.528.75-1.075.228-.29.409-.523.542-.699.96-1.259 1.377-2.064 1.25-2.414l-.05-.082c-.033-.05-.12-.094-.258-.135a1.33 1.33 0 00-.534-.02l-2.399.016a.316.316 0 00-.166.004l-.108.024-.042.02-.034.026a.373.373 0 00-.091.086.552.552 0 00-.083.143 13.349 13.349 0 01-.892 1.848c-.205.34-.394.634-.566.883-.172.249-.317.432-.433.55a3.036 3.036 0 01-.317.283c-.094.072-.166.102-.216.09a5.966 5.966 0 01-.142-.032.552.552 0 01-.187-.201.897.897 0 01-.096-.32 3.51 3.51 0 01-.026-.727c.006-.17.009-.285.009-.345 0-.208.004-.434.012-.678l.021-.579c.006-.142.008-.292.008-.452 0-.159-.01-.283-.029-.373a1.271 1.271 0 00-.087-.263.444.444 0 00-.17-.197.974.974 0 00-.28-.111A5.624 5.624 0 007.698 0C6.665-.009 6 .056 5.706.198c-.116.06-.222.143-.316.247-.1.12-.114.186-.042.197.333.049.57.167.708.353l.05.098c.039.071.078.197.117.378.039.18.064.38.075.6.028.4.028.741 0 1.026a11.95 11.95 0 01-.08.665 1.322 1.322 0 01-.212.567.143.143 0 01-.041.041.63.63 0 01-.225.041c-.078 0-.172-.038-.284-.115a2.01 2.01 0 01-.345-.316 4.213 4.213 0 01-.404-.563 9.73 9.73 0 01-.467-.854l-.133-.238a20.286 20.286 0 01-.342-.67 12.776 12.776 0 01-.383-.849.542.542 0 00-.2-.263L3.141.52a.879.879 0 00-.325-.123L.533.412C.3.412.142.464.058.568l-.033.05A.264.264 0 000 .747c0 .06.017.135.05.223.333.772.695 1.516 1.087 2.233.392.717.732 1.295 1.02 1.733.29.438.584.851.883 1.24.3.389.499.638.596.747.097.11.173.192.229.247l.208.197c.133.131.33.289.587.472.259.184.545.364.859.542.314.178.679.323 1.095.436.417.112.822.157 1.216.135h.958c.195-.016.342-.076.442-.18l.033-.041a.544.544 0 00.062-.152.821.821 0 00.03-.226 2.666 2.666 0 01.054-.636c.04-.19.089-.331.141-.428a1.047 1.047 0 01.321-.36.554.554 0 01.067-.03c.133-.043.29-.001.47.128.181.128.35.287.509.476.158.19.348.401.57.636.223.236.417.41.583.526l.167.099c.111.065.256.126.433.18a.947.947 0 00.466.041l2.133-.032c.211 0 .375-.035.491-.103.117-.069.186-.144.209-.226a.632.632 0 00.004-.28 1.017 1.017 0 00-.058-.217z"/>
</svg>
